<?xml version="1.0" standalone="no"?>
<!DOCTYPE svg PUBLIC "-//W3C//DTD SVG 20010904//EN"
 "http://www.w3.org/TR/2001/REC-SVG-20010904/DTD/svg10.dtd">
<svg version="1.0" xmlns="http://www.w3.org/2000/svg"
 width="200.000000pt" height="200.000000pt" viewBox="0 0 200.000000 200.000000"
 preserveAspectRatio="xMidYMid meet">
<metadata>
Created by potrace 1.14, written by Peter Selinger 2001-2017
</metadata>
<g transform="translate(0.000000,200.000000) scale(0.100000,-0.100000)"
fill="#000000" stroke="none">
<path d="M986 1624 c-8 -60 -30 -105 -77 -156 -36 -40 -40 -42 -53 -25 -7 9
-16 17 -19 17 -3 0 -10 -23 -17 -51 -12 -50 -10 -137 5 -173 7 -16 5 -17 -16
-11 -27 8 -117 52 -166 81 -84 50 -51 -66 47 -166 65 -66 137 -104 240 -126
126 -27 262 -3 345 60 18 14 38 26 44 26 9 0 51 61 51 75 0 4 -10 -4 -21 -19
-25 -32 -51 -30 -59 4 -5 22 -12 25 -54 27 -58 3 -65 8 -43 31 17 16 16 18
-14 43 -36 29 -33 44 12 54 31 7 32 7 26 60 -3 29 -10 63 -17 74 -11 21 -11
21 -35 -6 -27 -32 -29 -28 -40 49 -7 56 -55 131 -101 159 l-31 19 -7 -46z m72
-323 c11 -14 27 -25 36 -23 9 2 16 -3 16 -11 0 -21 -69 -49 -137 -55 -69 -5
-71 -3 -54 58 5 17 9 21 15 12 11 -19 26 -14 26 8 0 28 26 77 47 89 15 8 19 5
24 -21 4 -17 16 -42 27 -57z"/>
<path d="M1342 1314 c-41 -43 -46 -64 -17 -64 20 0 85 70 85 92 0 29 -22 20
-68 -28z"/>
<path d="M930 775 l0 -145 35 0 35 0 0 48 1 47 21 -47 c19 -45 23 -48 59 -48
22 0 39 2 39 5 0 2 -12 30 -27 60 l-28 56 23 39 c12 21 22 41 22 44 0 4 -15 6
-32 6 -27 0 -37 -7 -55 -38 l-22 -37 -1 78 0 77 -35 0 -35 0 0 -145z"/>
<path d="M1150 890 c0 -28 3 -30 35 -30 32 0 35 2 35 30 0 28 -3 30 -35 30
-32 0 -35 -2 -35 -30z"/>
<path d="M364 817 c-20 -18 -28 -35 -32 -75 -4 -47 -2 -54 26 -82 31 -31 80
-40 110 -21 21 13 11 56 -13 57 -11 1 -25 2 -32 3 -18 2 -26 38 -13 61 9 17
14 18 32 9 18 -9 24 -8 35 7 18 25 16 42 -6 54 -33 17 -78 11 -107 -13z"/>
<path d="M543 825 c-33 -23 -48 -79 -34 -126 21 -70 93 -92 148 -45 25 21 28
31 28 81 0 50 -3 60 -28 81 -32 28 -82 32 -114 9z m72 -90 c0 -33 -28 -47 -39
-19 -10 25 3 56 22 52 11 -2 17 -13 17 -33z"/>
<path d="M747 820 c-29 -23 -43 -74 -33 -116 18 -70 99 -97 153 -50 25 21 28
31 28 81 0 50 -3 60 -28 81 -35 30 -85 31 -120 4z m78 -85 c0 -33 -28 -47 -39
-19 -10 25 3 56 22 52 11 -2 17 -13 17 -33z"/>
<path d="M1150 735 l0 -105 35 0 35 0 0 105 0 105 -35 0 -35 0 0 -105z"/>
<path d="M1257 833 c-11 -10 -8 -63 3 -63 6 0 10 -28 10 -64 0 -67 6 -76 51
-76 17 0 19 8 19 69 0 50 4 70 14 74 22 9 26 -2 26 -75 l0 -69 33 3 c32 3 32
3 35 65 6 119 -27 163 -100 135 -21 -8 -36 -8 -42 -2 -11 11 -39 13 -49 3z"/>
<path d="M1525 828 c-34 -20 -44 -41 -45 -94 0 -63 21 -93 67 -97 46 -3 40
-22 -7 -21 -37 1 -40 -1 -40 -28 0 -28 1 -28 59 -28 87 0 91 7 91 150 0 114
-1 118 -22 124 -36 9 -81 7 -103 -6z m65 -92 c0 -38 -6 -47 -26 -39 -17 6 -19
54 -2 71 17 17 28 5 28 -32z"/>
</g>
</svg>
